<svg width="245" height="45" viewBox="0 0 245 45" fill="none" xmlns="http://www.w3.org/2000/svg">
<g filter="url(#filter0_d_215_110)">
<path d="M14.072 29.664C13.976 29.664 13.928 29.532 13.928 29.268C13.928 28.908 14 28.5 14.144 28.044C14.48 27.18 15.704 25.44 17.816 22.824C19.928 20.208 21.428 18.588 22.316 17.964C22.028 17.1 21.692 16.176 21.308 15.192C20.948 14.208 20.528 13.164 20.048 12.06H20.012C19.772 12.06 19.652 12.372 19.652 12.996L19.688 13.176L19.58 13.248C19.46 13.2 19.4 12.504 19.4 11.16C19.4 10.248 19.784 9.792 20.552 9.792C20.864 9.792 21.392 10.836 22.136 12.924C22.52 13.956 22.844 14.808 23.108 15.48C23.372 16.152 23.564 16.644 23.684 16.956C30.092 11.196 33.488 8.316 33.872 8.316C34.064 8.316 34.28 8.424 34.52 8.64C34.76 8.856 34.88 9.072 34.88 9.288C34.856 9.24 33.428 10.416 30.596 12.816L24.116 18.324L25.592 22.248C25.904 23.064 26.24 23.784 26.6 24.408C26.984 25.008 27.38 25.536 27.788 25.992C28.124 26.352 28.4 26.532 28.616 26.532C28.688 26.532 28.748 26.52 28.796 26.496C28.844 26.472 28.88 26.448 28.904 26.424C29 26.4 29.204 26.088 29.516 25.488C29.852 24.888 30.26 23.928 30.74 22.608C30.836 22.824 30.884 23.076 30.884 23.364C30.884 24.468 30.584 25.368 29.984 26.064C29.408 26.736 28.652 27.072 27.716 27.072C26.828 27.072 25.988 26.28 25.196 24.696C24.932 24.168 24.608 23.484 24.224 22.644C23.864 21.804 23.432 20.724 22.928 19.404C19.544 22.356 16.7 25.632 14.396 29.232C14.252 29.52 14.144 29.664 14.072 29.664Z" fill="#3BC0F9"/>
<path d="M41.4823 24V22.68H43.1623V24C43.1623 25.072 42.8343 25.904 42.1783 26.496C41.5223 27.072 40.5383 27.36 39.2263 27.36C37.9143 27.36 36.9223 27.072 36.2503 26.496C35.5783 25.904 35.2423 25.072 35.2423 24V14.4C35.2423 13.328 35.5703 12.504 36.2263 11.928C36.8823 11.336 37.8663 11.04 39.1783 11.04C40.4903 11.04 41.4823 11.336 42.1543 11.928C42.8263 12.504 43.1623 13.328 43.1623 14.4V16.68H41.4823V14.4C41.4823 13.12 40.7223 12.48 39.2023 12.48C37.6823 12.48 36.9223 13.12 36.9223 14.4V24C36.9223 25.28 37.6823 25.92 39.2023 25.92C40.7223 25.92 41.4823 25.28 41.4823 24ZM48.568 27V11.4H50.248V25.56H54.64V27H48.568ZM58.4811 24V11.4H60.1611V24C60.1611 24.608 60.2891 25.08 60.5451 25.416C60.8171 25.752 61.3051 25.92 62.0091 25.92C62.7131 25.92 63.3611 25.648 63.9531 25.104C64.5451 24.56 64.8411 24.032 64.8411 23.52V11.4H66.5211V27H65.8011L65.1771 25.464C64.8251 26.04 64.3691 26.504 63.8091 26.856C63.2651 27.192 62.6651 27.36 62.0091 27.36C59.6571 27.36 58.4811 26.24 58.4811 24ZM80.1625 24C80.1625 26.24 78.8105 27.36 76.1065 27.36C73.4025 27.36 72.0505 26.24 72.0505 24V21.96H73.7305V24.096C73.7305 24.672 73.9305 25.12 74.3305 25.44C74.7305 25.76 75.3225 25.92 76.1065 25.92C76.8905 25.92 77.4825 25.76 77.8825 25.44C78.2825 25.12 78.4825 24.688 78.4825 24.144C78.4825 23.584 78.4185 23.144 78.2905 22.824C78.1785 22.488 77.9385 22.136 77.5705 21.768L73.3465 17.64C72.8505 17.144 72.5065 16.664 72.3145 16.2C72.1385 15.72 72.0505 15.12 72.0505 14.4C72.0505 13.328 72.3785 12.504 73.0345 11.928C73.7065 11.336 74.7145 11.04 76.0585 11.04C78.6345 11.04 79.9225 12.16 79.9225 14.4V16.44H78.2425V14.304C78.2425 13.728 78.0505 13.28 77.6665 12.96C77.2985 12.64 76.7385 12.48 75.9865 12.48C75.2345 12.48 74.6665 12.64 74.2825 12.96C73.9145 13.28 73.7305 13.72 73.7305 14.28C73.7305 14.84 73.7865 15.28 73.8985 15.6C74.0105 15.92 74.2585 16.256 74.6425 16.608L78.9385 20.736C79.4025 21.248 79.7225 21.744 79.8985 22.224C80.0745 22.688 80.1625 23.28 80.1625 24ZM87.3636 27H85.6836V11.4H87.3636V27ZM97.9603 27H95.4403L91.9123 11.4H93.5923L96.6883 25.152L99.8083 11.4H101.488L97.9603 27ZM111.917 24V22.68H113.597V24C113.597 25.072 113.269 25.904 112.613 26.496C111.957 27.072 110.973 27.36 109.661 27.36C108.349 27.36 107.357 27.072 106.685 26.496C106.013 25.904 105.677 25.072 105.677 24V14.4C105.677 13.328 106.005 12.504 106.661 11.928C107.317 11.336 108.301 11.04 109.613 11.04C110.925 11.04 111.917 11.336 112.589 11.928C113.261 12.504 113.597 13.328 113.597 14.4V19.68H107.357V24C107.357 25.28 108.117 25.92 109.637 25.92C111.157 25.92 111.917 25.28 111.917 24ZM107.357 14.4V18.24H111.917V14.4C111.917 13.12 111.157 12.48 109.637 12.48C108.117 12.48 107.357 13.12 107.357 14.4ZM127.408 27H125.728V11.4H129.352C130.6 11.4 131.544 11.696 132.184 12.288C132.84 12.88 133.168 13.704 133.168 14.76V18.84C133.168 19.912 132.848 20.744 132.208 21.336C131.568 21.912 130.616 22.2 129.352 22.2H127.408V27ZM131.488 18.84V14.76C131.488 14.152 131.304 13.68 130.936 13.344C130.568 13.008 130.04 12.84 129.352 12.84H127.408V20.76H129.352C130.776 20.76 131.488 20.12 131.488 18.84ZM145.647 27H144.927L144.303 25.464C143.967 26.04 143.527 26.504 142.983 26.856C142.439 27.192 141.839 27.36 141.183 27.36C138.879 27.36 137.727 26.24 137.727 24V21.6C137.727 19.36 138.879 18.24 141.183 18.24H143.967V14.304C143.967 13.728 143.783 13.28 143.415 12.96C143.047 12.64 142.503 12.48 141.783 12.48C140.359 12.48 139.647 13.088 139.647 14.304V15.72H137.967V14.4C137.967 13.328 138.279 12.504 138.903 11.928C139.543 11.336 140.503 11.04 141.783 11.04C143.063 11.04 144.023 11.336 144.663 11.928C145.319 12.504 145.647 13.328 145.647 14.4V27ZM143.967 19.68H141.183C140.511 19.68 140.047 19.848 139.791 20.184C139.535 20.52 139.407 20.992 139.407 21.6V24C139.407 24.608 139.535 25.08 139.791 25.416C140.047 25.752 140.511 25.92 141.183 25.92C141.855 25.92 142.479 25.664 143.055 25.152C143.631 24.624 143.935 24.104 143.967 23.592V19.68ZM153.087 27H151.407V11.4H153.087V27ZM160.756 27H159.076V11.4H159.796L160.396 12.96C161.164 11.68 162.228 11.04 163.588 11.04C165.94 11.04 167.116 12.16 167.116 14.4V27H165.436V14.4C165.436 13.792 165.3 13.32 165.028 12.984C164.772 12.648 164.292 12.48 163.588 12.48C162.884 12.48 162.236 12.752 161.644 13.296C161.052 13.84 160.756 14.368 160.756 14.88V27ZM172.525 11.4H177.805V12.84H174.205V24.336C174.205 24.784 174.317 25.16 174.541 25.464C174.781 25.768 175.109 25.92 175.525 25.92C175.957 25.92 176.285 25.776 176.509 25.488C176.733 25.184 176.845 24.8 176.845 24.336V21.48H178.525V24.24C178.525 25.248 178.253 26.024 177.709 26.568C177.181 27.096 176.461 27.36 175.549 27.36C174.637 27.36 173.901 27.096 173.341 26.568C172.797 26.024 172.525 25.248 172.525 24.24V11.4ZM184.765 27H183.085V11.4H184.765V27ZM192.434 27H190.754V11.4H191.474L192.074 12.96C192.842 11.68 193.906 11.04 195.266 11.04C197.618 11.04 198.794 12.16 198.794 14.4V27H197.114V14.4C197.114 13.792 196.978 13.32 196.706 12.984C196.45 12.648 195.97 12.48 195.266 12.48C194.562 12.48 193.914 12.752 193.322 13.296C192.73 13.84 192.434 14.368 192.434 14.88V27ZM207.755 20.52V19.08H212.123V24C212.123 25.072 211.795 25.904 211.139 26.496C210.483 27.072 209.499 27.36 208.187 27.36C206.875 27.36 205.883 27.072 205.211 26.496C204.539 25.904 204.203 25.072 204.203 24V14.4C204.203 13.328 204.531 12.504 205.187 11.928C205.843 11.336 206.827 11.04 208.139 11.04C209.451 11.04 210.443 11.336 211.115 11.928C211.787 12.504 212.123 13.328 212.123 14.4V15.72H210.443V14.4C210.443 13.12 209.683 12.48 208.163 12.48C206.643 12.48 205.883 13.12 205.883 14.4V24C205.883 25.28 206.643 25.92 208.163 25.92C209.683 25.92 210.443 25.28 210.443 24V20.52H207.755Z" fill="#B13BF9"/>
</g>
<g filter="url(#filter1_d_215_110)">
<path d="M13.06 27H4.8V8.8H12.78V10.48H6.76V16.92H11.66V18.6H6.76V25.32H13.06V27Z" fill="#B13BF9"/>
</g>
<g filter="url(#filter2_d_215_110)">
<path d="M240.157 27.19H225.631C224.668 27.19 223.745 26.7124 223.064 25.8624C222.383 25.0123 222 23.8593 222 22.6571V13.5913C222.003 12.9245 222.216 12.2859 222.594 11.8143C222.972 11.3428 223.483 11.0764 224.017 11.0731H228.738C228.796 11.0732 228.853 11.0575 228.905 11.027C228.957 10.9965 229.004 10.9521 229.041 10.8968C229.08 10.8431 229.109 10.7787 229.124 10.7088C229.14 10.6388 229.143 10.5652 229.131 10.4939L228.456 4.60113V4.52558C228.456 3.59054 228.753 2.69379 229.283 2.03262C229.813 1.37144 230.531 1 231.28 1C232.029 1 232.747 1.37144 233.277 2.03262C233.807 2.69379 234.104 3.59054 234.104 4.52558V4.60113L233.429 10.4939C233.417 10.5652 233.42 10.6388 233.436 10.7088C233.451 10.7787 233.48 10.8431 233.519 10.8968C233.556 10.9521 233.603 10.9965 233.655 11.027C233.707 11.0575 233.764 11.0732 233.822 11.0731H238.543C239.077 11.0764 239.588 11.3428 239.966 11.8143C240.344 12.2859 240.557 12.9245 240.56 13.5913V26.6863C240.56 26.8199 240.517 26.948 240.442 27.0425C240.366 27.1369 240.264 27.19 240.157 27.19ZM225.631 26.1827H236.525V20.6425C236.525 20.5089 236.568 20.3808 236.643 20.2864C236.719 20.1919 236.822 20.1388 236.929 20.1388C237.036 20.1388 237.138 20.1919 237.214 20.2864C237.29 20.3808 237.332 20.5089 237.332 20.6425V26.1827H239.753V17.1169H222.807V22.6571C222.81 23.5911 223.108 24.486 223.637 25.1464C224.166 25.8069 224.883 26.1794 225.631 26.1827ZM238.543 12.0804H233.822C233.65 12.0815 233.479 12.0358 233.323 11.9467C233.166 11.8576 233.026 11.7271 232.914 11.5641C232.801 11.3988 232.717 11.206 232.666 10.998C232.616 10.7899 232.601 10.5711 232.622 10.3554L233.297 4.4878C233.297 3.81992 233.085 3.17939 232.707 2.70712C232.328 2.23485 231.815 1.96954 231.28 1.96954C230.745 1.96954 230.232 2.23485 229.853 2.70712C229.475 3.17939 229.263 3.81992 229.263 4.4878L229.938 10.3554C229.959 10.5711 229.944 10.7899 229.894 10.998C229.843 11.206 229.759 11.3988 229.646 11.5641C229.534 11.7271 229.394 11.8576 229.237 11.9467C229.081 12.0358 228.91 12.0815 228.738 12.0804H224.017C223.696 12.0804 223.388 12.2396 223.161 12.5229C222.934 12.8063 222.807 13.1906 222.807 13.5913V16.1096H239.753V13.5913C239.753 13.1906 239.626 12.8063 239.399 12.5229C239.172 12.2396 238.864 12.0804 238.543 12.0804Z" fill="#3BC0F9"/>
</g>
<defs>
<filter id="filter0_d_215_110" x="9.92798" y="8.31599" width="206.195" height="29.348" filterUnits="userSpaceOnUse" color-interpolation-filters="sRGB">
<feFlood flood-opacity="0" result="BackgroundImageFix"/>
<feColorMatrix in="SourceAlpha" type="matrix" values="0 0 0 0 0 0 0 0 0 0 0 0 0 0 0 0 0 0 127 0" result="hardAlpha"/>
<feOffset dy="4"/>
<feGaussianBlur stdDeviation="2"/>
<feComposite in2="hardAlpha" operator="out"/>
<feColorMatrix type="matrix" values="0 0 0 0 0 0 0 0 0 0 0 0 0 0 0 0 0 0 0.25 0"/>
<feBlend mode="normal" in2="BackgroundImageFix" result="effect1_dropShadow_215_110"/>
<feBlend mode="normal" in="SourceGraphic" in2="effect1_dropShadow_215_110" result="shape"/>
</filter>
<filter id="filter1_d_215_110" x="0.799988" y="8.8" width="16.26" height="26.2" filterUnits="userSpaceOnUse" color-interpolation-filters="sRGB">
<feFlood flood-opacity="0" result="BackgroundImageFix"/>
<feColorMatrix in="SourceAlpha" type="matrix" values="0 0 0 0 0 0 0 0 0 0 0 0 0 0 0 0 0 0 127 0" result="hardAlpha"/>
<feOffset dy="4"/>
<feGaussianBlur stdDeviation="2"/>
<feComposite in2="hardAlpha" operator="out"/>
<feColorMatrix type="matrix" values="0 0 0 0 0 0 0 0 0 0 0 0 0 0 0 0 0 0 0.25 0"/>
<feBlend mode="normal" in2="BackgroundImageFix" result="effect1_dropShadow_215_110"/>
<feBlend mode="normal" in="SourceGraphic" in2="effect1_dropShadow_215_110" result="shape"/>
</filter>
<filter id="filter2_d_215_110" x="218" y="1" width="26.56" height="34.19" filterUnits="userSpaceOnUse" color-interpolation-filters="sRGB">
<feFlood flood-opacity="0" result="BackgroundImageFix"/>
<feColorMatrix in="SourceAlpha" type="matrix" values="0 0 0 0 0 0 0 0 0 0 0 0 0 0 0 0 0 0 127 0" result="hardAlpha"/>
<feOffset dy="4"/>
<feGaussianBlur stdDeviation="2"/>
<feComposite in2="hardAlpha" operator="out"/>
<feColorMatrix type="matrix" values="0 0 0 0 0 0 0 0 0 0 0 0 0 0 0 0 0 0 0.25 0"/>
<feBlend mode="normal" in2="BackgroundImageFix" result="effect1_dropShadow_215_110"/>
<feBlend mode="normal" in="SourceGraphic" in2="effect1_dropShadow_215_110" result="shape"/>
</filter>
</defs>
</svg>
