<svg width="430" height="64" viewBox="0 0 430 64" fill="none" xmlns="http://www.w3.org/2000/svg">
<rect width="430" height="60" fill="white"/>
<g filter="url(#filter0_d_704_18)">
<path d="M108.072 41.664C107.976 41.664 107.928 41.532 107.928 41.268C107.928 40.908 108 40.5 108.144 40.044C108.48 39.18 109.704 37.44 111.816 34.824C113.928 32.208 115.428 30.588 116.316 29.964C116.028 29.1 115.692 28.176 115.308 27.192C114.948 26.208 114.528 25.164 114.048 24.06H114.012C113.772 24.06 113.652 24.372 113.652 24.996L113.688 25.176L113.58 25.248C113.46 25.2 113.4 24.504 113.4 23.16C113.4 22.248 113.784 21.792 114.552 21.792C114.864 21.792 115.392 22.836 116.136 24.924C116.52 25.956 116.844 26.808 117.108 27.48C117.372 28.152 117.564 28.644 117.684 28.956C124.092 23.196 127.488 20.316 127.872 20.316C128.064 20.316 128.28 20.424 128.52 20.64C128.76 20.856 128.88 21.072 128.88 21.288C128.856 21.24 127.428 22.416 124.596 24.816L118.116 30.324L119.592 34.248C119.904 35.064 120.24 35.784 120.6 36.408C120.984 37.008 121.38 37.536 121.788 37.992C122.124 38.352 122.4 38.532 122.616 38.532C122.688 38.532 122.748 38.52 122.796 38.496C122.844 38.472 122.88 38.448 122.904 38.424C123 38.4 123.204 38.088 123.516 37.488C123.852 36.888 124.26 35.928 124.74 34.608C124.836 34.824 124.884 35.076 124.884 35.364C124.884 36.468 124.584 37.368 123.984 38.064C123.408 38.736 122.652 39.072 121.716 39.072C120.828 39.072 119.988 38.28 119.196 36.696C118.932 36.168 118.608 35.484 118.224 34.644C117.864 33.804 117.432 32.724 116.928 31.404C113.544 34.356 110.7 37.632 108.396 41.232C108.252 41.52 108.144 41.664 108.072 41.664Z" fill="#3BC0F9"/>
<path d="M135.482 36V34.68H137.162V36C137.162 37.072 136.834 37.904 136.178 38.496C135.522 39.072 134.538 39.36 133.226 39.36C131.914 39.36 130.922 39.072 130.25 38.496C129.578 37.904 129.242 37.072 129.242 36V26.4C129.242 25.328 129.57 24.504 130.226 23.928C130.882 23.336 131.866 23.04 133.178 23.04C134.49 23.04 135.482 23.336 136.154 23.928C136.826 24.504 137.162 25.328 137.162 26.4V28.68H135.482V26.4C135.482 25.12 134.722 24.48 133.202 24.48C131.682 24.48 130.922 25.12 130.922 26.4V36C130.922 37.28 131.682 37.92 133.202 37.92C134.722 37.92 135.482 37.28 135.482 36ZM142.568 39V23.4H144.248V37.56H148.64V39H142.568ZM152.481 36V23.4H154.161V36C154.161 36.608 154.289 37.08 154.545 37.416C154.817 37.752 155.305 37.92 156.009 37.92C156.713 37.92 157.361 37.648 157.953 37.104C158.545 36.56 158.841 36.032 158.841 35.52V23.4H160.521V39H159.801L159.177 37.464C158.825 38.04 158.369 38.504 157.809 38.856C157.265 39.192 156.665 39.36 156.009 39.36C153.657 39.36 152.481 38.24 152.481 36ZM174.162 36C174.162 38.24 172.81 39.36 170.106 39.36C167.402 39.36 166.05 38.24 166.05 36V33.96H167.73V36.096C167.73 36.672 167.93 37.12 168.33 37.44C168.73 37.76 169.322 37.92 170.106 37.92C170.89 37.92 171.482 37.76 171.882 37.44C172.282 37.12 172.482 36.688 172.482 36.144C172.482 35.584 172.418 35.144 172.29 34.824C172.178 34.488 171.938 34.136 171.57 33.768L167.346 29.64C166.85 29.144 166.506 28.664 166.314 28.2C166.138 27.72 166.05 27.12 166.05 26.4C166.05 25.328 166.378 24.504 167.034 23.928C167.706 23.336 168.714 23.04 170.058 23.04C172.634 23.04 173.922 24.16 173.922 26.4V28.44H172.242V26.304C172.242 25.728 172.05 25.28 171.666 24.96C171.298 24.64 170.738 24.48 169.986 24.48C169.234 24.48 168.666 24.64 168.282 24.96C167.914 25.28 167.73 25.72 167.73 26.28C167.73 26.84 167.786 27.28 167.898 27.6C168.01 27.92 168.258 28.256 168.642 28.608L172.938 32.736C173.402 33.248 173.722 33.744 173.898 34.224C174.074 34.688 174.162 35.28 174.162 36ZM181.364 39H179.684V23.4H181.364V39ZM191.96 39H189.44L185.912 23.4H187.592L190.688 37.152L193.808 23.4H195.488L191.96 39ZM205.917 36V34.68H207.597V36C207.597 37.072 207.269 37.904 206.613 38.496C205.957 39.072 204.973 39.36 203.661 39.36C202.349 39.36 201.357 39.072 200.685 38.496C200.013 37.904 199.677 37.072 199.677 36V26.4C199.677 25.328 200.005 24.504 200.661 23.928C201.317 23.336 202.301 23.04 203.613 23.04C204.925 23.04 205.917 23.336 206.589 23.928C207.261 24.504 207.597 25.328 207.597 26.4V31.68H201.357V36C201.357 37.28 202.117 37.92 203.637 37.92C205.157 37.92 205.917 37.28 205.917 36ZM201.357 26.4V30.24H205.917V26.4C205.917 25.12 205.157 24.48 203.637 24.48C202.117 24.48 201.357 25.12 201.357 26.4ZM221.408 39H219.728V23.4H223.352C224.6 23.4 225.544 23.696 226.184 24.288C226.84 24.88 227.168 25.704 227.168 26.76V30.84C227.168 31.912 226.848 32.744 226.208 33.336C225.568 33.912 224.616 34.2 223.352 34.2H221.408V39ZM225.488 30.84V26.76C225.488 26.152 225.304 25.68 224.936 25.344C224.568 25.008 224.04 24.84 223.352 24.84H221.408V32.76H223.352C224.776 32.76 225.488 32.12 225.488 30.84ZM239.647 39H238.927L238.303 37.464C237.967 38.04 237.527 38.504 236.983 38.856C236.439 39.192 235.839 39.36 235.183 39.36C232.879 39.36 231.727 38.24 231.727 36V33.6C231.727 31.36 232.879 30.24 235.183 30.24H237.967V26.304C237.967 25.728 237.783 25.28 237.415 24.96C237.047 24.64 236.503 24.48 235.783 24.48C234.359 24.48 233.647 25.088 233.647 26.304V27.72H231.967V26.4C231.967 25.328 232.279 24.504 232.903 23.928C233.543 23.336 234.503 23.04 235.783 23.04C237.063 23.04 238.023 23.336 238.663 23.928C239.319 24.504 239.647 25.328 239.647 26.4V39ZM237.967 31.68H235.183C234.511 31.68 234.047 31.848 233.791 32.184C233.535 32.52 233.407 32.992 233.407 33.6V36C233.407 36.608 233.535 37.08 233.791 37.416C234.047 37.752 234.511 37.92 235.183 37.92C235.855 37.92 236.479 37.664 237.055 37.152C237.631 36.624 237.935 36.104 237.967 35.592V31.68ZM247.087 39H245.407V23.4H247.087V39ZM254.756 39H253.076V23.4H253.796L254.396 24.96C255.164 23.68 256.228 23.04 257.588 23.04C259.94 23.04 261.116 24.16 261.116 26.4V39H259.436V26.4C259.436 25.792 259.3 25.32 259.028 24.984C258.772 24.648 258.292 24.48 257.588 24.48C256.884 24.48 256.236 24.752 255.644 25.296C255.052 25.84 254.756 26.368 254.756 26.88V39ZM266.525 23.4H271.805V24.84H268.205V36.336C268.205 36.784 268.317 37.16 268.541 37.464C268.781 37.768 269.109 37.92 269.525 37.92C269.957 37.92 270.285 37.776 270.509 37.488C270.733 37.184 270.845 36.8 270.845 36.336V33.48H272.525V36.24C272.525 37.248 272.253 38.024 271.709 38.568C271.181 39.096 270.461 39.36 269.549 39.36C268.637 39.36 267.901 39.096 267.341 38.568C266.797 38.024 266.525 37.248 266.525 36.24V23.4ZM278.765 39H277.085V23.4H278.765V39ZM286.434 39H284.754V23.4H285.474L286.074 24.96C286.842 23.68 287.906 23.04 289.266 23.04C291.618 23.04 292.794 24.16 292.794 26.4V39H291.114V26.4C291.114 25.792 290.978 25.32 290.706 24.984C290.45 24.648 289.97 24.48 289.266 24.48C288.562 24.48 287.914 24.752 287.322 25.296C286.73 25.84 286.434 26.368 286.434 26.88V39ZM301.755 32.52V31.08H306.123V36C306.123 37.072 305.795 37.904 305.139 38.496C304.483 39.072 303.499 39.36 302.187 39.36C300.875 39.36 299.883 39.072 299.211 38.496C298.539 37.904 298.203 37.072 298.203 36V26.4C298.203 25.328 298.531 24.504 299.187 23.928C299.843 23.336 300.827 23.04 302.139 23.04C303.451 23.04 304.443 23.336 305.115 23.928C305.787 24.504 306.123 25.328 306.123 26.4V27.72H304.443V26.4C304.443 25.12 303.683 24.48 302.163 24.48C300.643 24.48 299.883 25.12 299.883 26.4V36C299.883 37.28 300.643 37.92 302.163 37.92C303.683 37.92 304.443 37.28 304.443 36V32.52H301.755Z" fill="#B13BF9"/>
</g>
<g filter="url(#filter1_d_704_18)">
<path d="M107.06 38.1039H98.8V19.9039H106.78V21.5839H100.76V28.0239H105.66V29.7039H100.76V36.4239H107.06V38.1039Z" fill="#B13BF9"/>
</g>
<g filter="url(#filter2_d_704_18)">
<path d="M334.157 40.0149H319.631C318.668 40.0149 317.745 39.4877 317.064 38.5493C316.383 37.6109 316 36.3382 316 35.0111V25.0034C316.003 24.2673 316.216 23.5623 316.594 23.0418C316.972 22.5212 317.483 22.2272 318.017 22.2235H322.738C322.796 22.2237 322.853 22.2063 322.905 22.1727C322.957 22.139 323.004 22.09 323.041 22.0289C323.08 21.9697 323.109 21.8986 323.124 21.8214C323.14 21.7441 323.143 21.6629 323.131 21.5841L322.456 15.0792V14.9958C322.456 13.9636 322.753 12.9737 323.283 12.2438C323.813 11.5139 324.531 11.1039 325.28 11.1039C326.029 11.1039 326.747 11.5139 327.277 12.2438C327.807 12.9737 328.104 13.9636 328.104 14.9958V15.0792L327.429 21.5841C327.417 21.6629 327.42 21.7441 327.436 21.8214C327.451 21.8986 327.48 21.9697 327.519 22.0289C327.556 22.09 327.603 22.139 327.655 22.1727C327.707 22.2063 327.764 22.2237 327.822 22.2235H332.543C333.077 22.2272 333.588 22.5212 333.966 23.0418C334.344 23.5623 334.557 24.2673 334.56 25.0034V39.4589C334.56 39.6064 334.517 39.7478 334.442 39.8521C334.366 39.9564 334.264 40.0149 334.157 40.0149ZM319.631 38.903H330.525V32.7872C330.525 32.6397 330.568 32.4983 330.643 32.394C330.719 32.2898 330.822 32.2312 330.929 32.2312C331.036 32.2312 331.138 32.2898 331.214 32.394C331.29 32.4983 331.332 32.6397 331.332 32.7872V38.903H333.753V28.8953H316.807V35.0111C316.81 36.0422 317.108 37.0299 317.637 37.759C318.166 38.4881 318.883 38.8993 319.631 38.903ZM332.543 23.3355H327.822C327.65 23.3367 327.479 23.2863 327.323 23.1879C327.166 23.0895 327.026 22.9454 326.914 22.7656C326.801 22.5831 326.717 22.3703 326.666 22.1406C326.616 21.911 326.601 21.6694 326.622 21.4312L327.297 14.9541C327.297 14.2168 327.085 13.5097 326.707 12.9884C326.328 12.467 325.815 12.1742 325.28 12.1742C324.745 12.1742 324.232 12.467 323.853 12.9884C323.475 13.5097 323.263 14.2168 323.263 14.9541L323.938 21.4312C323.959 21.6694 323.944 21.911 323.894 22.1406C323.843 22.3703 323.759 22.5831 323.646 22.7656C323.534 22.9454 323.394 23.0895 323.237 23.1879C323.081 23.2863 322.91 23.3367 322.738 23.3355H318.017C317.696 23.3355 317.388 23.5112 317.161 23.824C316.934 24.1368 316.807 24.5611 316.807 25.0034V27.7833H333.753V25.0034C333.753 24.5611 333.626 24.1368 333.399 23.824C333.172 23.5112 332.864 23.3355 332.543 23.3355V23.3355Z" fill="#3BC0F9"/>
</g>
<defs>
<filter id="filter0_d_704_18" x="103.928" y="20.316" width="206.195" height="29.348" filterUnits="userSpaceOnUse" color-interpolation-filters="sRGB">
<feFlood flood-opacity="0" result="BackgroundImageFix"/>
<feColorMatrix in="SourceAlpha" type="matrix" values="0 0 0 0 0 0 0 0 0 0 0 0 0 0 0 0 0 0 127 0" result="hardAlpha"/>
<feOffset dy="4"/>
<feGaussianBlur stdDeviation="2"/>
<feComposite in2="hardAlpha" operator="out"/>
<feColorMatrix type="matrix" values="0 0 0 0 0 0 0 0 0 0 0 0 0 0 0 0 0 0 0.25 0"/>
<feBlend mode="normal" in2="BackgroundImageFix" result="effect1_dropShadow_704_18"/>
<feBlend mode="normal" in="SourceGraphic" in2="effect1_dropShadow_704_18" result="shape"/>
</filter>
<filter id="filter1_d_704_18" x="94.8" y="19.9039" width="16.26" height="26.2" filterUnits="userSpaceOnUse" color-interpolation-filters="sRGB">
<feFlood flood-opacity="0" result="BackgroundImageFix"/>
<feColorMatrix in="SourceAlpha" type="matrix" values="0 0 0 0 0 0 0 0 0 0 0 0 0 0 0 0 0 0 127 0" result="hardAlpha"/>
<feOffset dy="4"/>
<feGaussianBlur stdDeviation="2"/>
<feComposite in2="hardAlpha" operator="out"/>
<feColorMatrix type="matrix" values="0 0 0 0 0 0 0 0 0 0 0 0 0 0 0 0 0 0 0.25 0"/>
<feBlend mode="normal" in2="BackgroundImageFix" result="effect1_dropShadow_704_18"/>
<feBlend mode="normal" in="SourceGraphic" in2="effect1_dropShadow_704_18" result="shape"/>
</filter>
<filter id="filter2_d_704_18" x="312" y="11.1039" width="26.5601" height="36.911" filterUnits="userSpaceOnUse" color-interpolation-filters="sRGB">
<feFlood flood-opacity="0" result="BackgroundImageFix"/>
<feColorMatrix in="SourceAlpha" type="matrix" values="0 0 0 0 0 0 0 0 0 0 0 0 0 0 0 0 0 0 127 0" result="hardAlpha"/>
<feOffset dy="4"/>
<feGaussianBlur stdDeviation="2"/>
<feComposite in2="hardAlpha" operator="out"/>
<feColorMatrix type="matrix" values="0 0 0 0 0 0 0 0 0 0 0 0 0 0 0 0 0 0 0.25 0"/>
<feBlend mode="normal" in2="BackgroundImageFix" result="effect1_dropShadow_704_18"/>
<feBlend mode="normal" in="SourceGraphic" in2="effect1_dropShadow_704_18" result="shape"/>
</filter>
</defs>
</svg>
