<svg width="16" height="16" viewBox="0 0 16 16" fill="none" xmlns="http://www.w3.org/2000/svg">
<path fill-rule="evenodd" clip-rule="evenodd" d="M7.5 9.99996V12.67C7.50017 12.7327 7.51821 12.7941 7.55202 12.8469C7.58582 12.8997 7.63399 12.9419 7.69087 12.9683C7.74775 12.9948 7.81099 13.0044 7.87318 12.9962C7.93537 12.988 7.99393 12.9623 8.042 12.922L13.267 8.50096C13.3399 8.43938 13.3984 8.36265 13.4386 8.27613C13.4787 8.1896 13.4995 8.09535 13.4995 7.99996C13.4995 7.90457 13.4787 7.81032 13.4386 7.7238C13.3984 7.63727 13.3399 7.56054 13.267 7.49896L8.042 3.07796C7.99395 3.03736 7.93529 3.01133 7.87294 3.00295C7.81059 2.99458 7.74715 3.0042 7.69008 3.03068C7.63302 3.05716 7.58471 3.09941 7.55086 3.15243C7.517 3.20545 7.49901 3.26705 7.499 3.32996V5.99996H3C2.86739 5.99996 2.74021 6.05264 2.64645 6.14641C2.55268 6.24018 2.5 6.36735 2.5 6.49996V9.49996C2.5 9.63257 2.55268 9.75975 2.64645 9.85351C2.74021 9.94728 2.86739 9.99996 3 9.99996H7.5ZM3 11.5C2.46957 11.5 1.96086 11.2892 1.58579 10.9142C1.21071 10.5391 1 10.0304 1 9.49996V6.49996C1 5.96953 1.21071 5.46082 1.58579 5.08575C1.96086 4.71067 2.46957 4.49996 3 4.49996H6V3.32996C6.00033 2.98135 6.10023 2.64009 6.28795 2.34633C6.47566 2.05257 6.74338 1.81854 7.05959 1.67178C7.37581 1.52502 7.72736 1.47163 8.07289 1.5179C8.41842 1.56417 8.74354 1.70817 9.01 1.93296L14.236 6.35396C14.4752 6.55635 14.6675 6.80846 14.7993 7.09273C14.9312 7.377 14.9995 7.6866 14.9995 7.99996C14.9995 8.31332 14.9312 8.62292 14.7993 8.90719C14.6675 9.19146 14.4752 9.44357 14.236 9.64596L9.01 14.067C8.74358 14.2924 8.41827 14.4369 8.07242 14.4835C7.72657 14.5301 7.3746 14.4769 7.05801 14.33C6.74143 14.1832 6.47343 13.9489 6.28562 13.6548C6.09781 13.3606 5.99801 13.0189 5.998 12.67V11.5H3Z" fill="black"/>
</svg>
