<svg width="16" height="16" viewBox="0 0 16 16" fill="none" xmlns="http://www.w3.org/2000/svg">
<path fill-rule="evenodd" clip-rule="evenodd" d="M8.50002 5.99994V3.32994C8.50001 3.26703 8.48202 3.20543 8.44817 3.15241C8.41431 3.09939 8.36601 3.05714 8.30894 3.03066C8.25188 3.00418 8.18843 2.99456 8.12608 3.00293C8.06373 3.01131 8.00508 3.03734 7.95702 3.07794L2.73202 7.49894C2.65917 7.56052 2.60063 7.63725 2.56047 7.72378C2.52031 7.8103 2.4995 7.90455 2.4995 7.99994C2.4995 8.09533 2.52031 8.18958 2.56047 8.27611C2.60063 8.36263 2.65917 8.43936 2.73202 8.50094L7.95702 12.9219C8.00508 12.9625 8.06373 12.9886 8.12608 12.9969C8.18843 13.0053 8.25188 12.9957 8.30894 12.9692C8.36601 12.9427 8.41431 12.9005 8.44817 12.8475C8.48202 12.7944 8.50001 12.7329 8.50002 12.6699V9.99994H13C13.1326 9.99994 13.2598 9.94726 13.3536 9.85349C13.4473 9.75973 13.5 9.63255 13.5 9.49994V6.49994C13.5 6.36733 13.4473 6.24016 13.3536 6.14639C13.2598 6.05262 13.1326 5.99994 13 5.99994H8.50002ZM13 4.49994C13.5305 4.49994 14.0392 4.71065 14.4142 5.08573C14.7893 5.4608 15 5.96951 15 6.49994V9.49994C15 10.0304 14.7893 10.5391 14.4142 10.9142C14.0392 11.2892 13.5305 11.4999 13 11.4999H10V12.6699C10 13.0189 9.90022 13.3606 9.71241 13.6547C9.52459 13.9489 9.25659 14.1832 8.94001 14.33C8.62343 14.4768 8.27146 14.5301 7.92561 14.4835C7.57976 14.4369 7.25444 14.2923 6.98802 14.0669L1.76302 9.64594C1.52379 9.44355 1.33154 9.19144 1.19968 8.90717C1.06782 8.6229 0.999512 8.3133 0.999512 7.99994C0.999512 7.68658 1.06782 7.37698 1.19968 7.09271C1.33154 6.80844 1.52379 6.55633 1.76302 6.35394L6.98802 1.93294C7.25444 1.70754 7.57976 1.56301 7.92561 1.5164C8.27146 1.46979 8.62343 1.52304 8.94001 1.66987C9.25659 1.81671 9.52459 2.051 9.71241 2.34513C9.90022 2.63926 10 2.98096 10 3.32994V4.49994H13Z" fill="black"/>
</svg>
