<svg width="16" height="17" viewBox="0 0 16 17" fill="none" xmlns="http://www.w3.org/2000/svg">
<path fill-rule="evenodd" clip-rule="evenodd" d="M7.5 10.4983V13.1683C7.50017 13.231 7.51821 13.2924 7.55202 13.3452C7.58582 13.398 7.63399 13.4401 7.69087 13.4666C7.74775 13.493 7.81099 13.5027 7.87318 13.4945C7.93537 13.4863 7.99393 13.4606 8.042 13.4203L13.267 8.99925C13.3399 8.93767 13.3984 8.86094 13.4386 8.77442C13.4787 8.68789 13.4995 8.59364 13.4995 8.49825C13.4995 8.40286 13.4787 8.30862 13.4386 8.22209C13.3984 8.13556 13.3399 8.05883 13.267 7.99725L8.042 3.57625C7.99395 3.53565 7.93529 3.50962 7.87294 3.50124C7.81059 3.49287 7.74715 3.50249 7.69008 3.52897C7.63302 3.55545 7.58471 3.5977 7.55086 3.65072C7.517 3.70375 7.49901 3.76534 7.499 3.82825V6.49825H3C2.86739 6.49825 2.74021 6.55093 2.64645 6.6447C2.55268 6.73847 2.5 6.86564 2.5 6.99825V9.99825C2.5 10.1309 2.55268 10.258 2.64645 10.3518C2.74021 10.4456 2.86739 10.4983 3 10.4983H7.5ZM3 11.9983C2.46957 11.9983 1.96086 11.7875 1.58579 11.4125C1.21071 11.0374 1 10.5287 1 9.99825V6.99825C1 6.46782 1.21071 5.95911 1.58579 5.58404C1.96086 5.20897 2.46957 4.99825 3 4.99825H6V3.82825C6.00033 3.47964 6.10023 3.13838 6.28795 2.84462C6.47566 2.55086 6.74338 2.31683 7.05959 2.17007C7.37581 2.02331 7.72736 1.96992 8.07289 2.01619C8.41842 2.06246 8.74354 2.20646 9.01 2.43125L14.236 6.85225C14.4752 7.05464 14.6675 7.30675 14.7993 7.59102C14.9312 7.87529 14.9995 8.18489 14.9995 8.49825C14.9995 8.81162 14.9312 9.12121 14.7993 9.40548C14.6675 9.68975 14.4752 9.94186 14.236 10.1443L9.01 14.5653C8.74358 14.7907 8.41827 14.9352 8.07242 14.9818C7.72657 15.0284 7.3746 14.9752 7.05801 14.8283C6.74143 14.6815 6.47343 14.4472 6.28562 14.1531C6.09781 13.8589 5.99801 13.5172 5.998 13.1683V11.9983H3Z" fill="white"/>
</svg>
